# xmcd
#
# Track frame offsets:
# 151
# 12407
# 26361
# 37125
# 48639
# 61228
# 75324
# 86919
# 99215
# 114253
# 128106
#
# Disc length: 1939 seconds
#
#
# Revision: 0
# Processed by: cddbd v1.4PL0 Copyright (c) Steve Scherf et al.
# Submitted via: FreeRIP 2.51 
#
DISCID=8107910b
DTITLE=Ronnie Beard - Bringing It Home
DYEAR=1900
DGENRE=Country
TTITLE0=Green Green Grass of Home
TTITLE1=The Shake
TTITLE2=The British are Comin'
TTITLE3=Little Black Dress
TTITLE4=Lonely and Blue
TTITLE5=Lyin' Love
TTITLE6=I Give You Flowers
TTITLE7=Green Green Grass of Home
TTITLE8=Bump N Grind
TTITLE9=Un Chihua Hun
TTITLE10=Santa Claus
EXTD=Southbound Records
EXTT0=
EXTT1=
EXTT2=
EXTT3=
EXTT4=
EXTT5=
EXTT6=
EXTT7=
EXTT8=
EXTT9=
EXTT10=
PLAYORDER=
